<svg xmlns="http://www.w3.org/2000/svg" xmlns:xlink="http://www.w3.org/1999/xlink" preserveAspectRatio="xMidYMid" width="56.5" height="56.5" viewBox="0 0 56.5 56.5">
  <defs>
    <style>
      .cls-1 {
        fill: #fff;
        fill-rule: evenodd;
      }
    </style>
  </defs>
  <path d="M53.660,34.113 L48.248,35.196 C47.975,35.979 47.658,36.738 47.301,37.475 L50.365,42.071 C51.300,43.471 51.113,45.336 49.924,46.526 L46.527,49.924 C45.844,50.606 44.941,50.958 44.029,50.958 C43.351,50.958 42.670,50.763 42.071,50.365 L37.475,47.301 C36.740,47.656 35.981,47.975 35.199,48.247 L34.114,53.660 C33.785,55.312 32.335,56.499 30.652,56.499 L25.848,56.499 C24.165,56.499 22.715,55.312 22.386,53.660 L21.303,48.247 C20.520,47.975 19.762,47.657 19.025,47.301 L14.429,50.365 C13.832,50.763 13.149,50.958 12.471,50.958 C11.559,50.958 10.656,50.606 9.973,49.924 L6.576,46.526 C5.386,45.336 5.200,43.471 6.135,42.071 L9.199,37.475 C8.844,36.740 8.525,35.981 8.252,35.198 L2.840,34.113 C1.188,33.784 -0.000,32.334 -0.000,30.652 L-0.000,25.847 C-0.000,24.165 1.188,22.715 2.840,22.385 L8.252,21.303 C8.525,20.520 8.842,19.761 9.199,19.025 L6.135,14.428 C5.200,13.028 5.386,11.162 6.576,9.972 L9.973,6.576 C10.656,5.893 11.559,5.541 12.471,5.541 C13.149,5.541 13.830,5.736 14.429,6.134 L19.025,9.198 C19.760,8.843 20.518,8.524 21.301,8.252 L22.386,2.839 C22.715,1.187 24.165,-0.001 25.848,-0.001 L30.652,-0.001 C32.335,-0.001 33.785,1.187 34.114,2.839 L35.197,8.252 C35.980,8.524 36.738,8.842 37.475,9.198 L42.071,6.134 C42.668,5.736 43.351,5.541 44.029,5.541 C44.941,5.541 45.844,5.893 46.527,6.576 L49.924,9.972 C51.113,11.162 51.300,13.028 50.365,14.428 L47.301,19.025 C47.656,19.759 47.975,20.518 48.248,21.301 L53.660,22.385 C55.312,22.715 56.500,24.165 56.500,25.847 L56.500,30.652 C56.500,32.334 55.312,33.784 53.660,34.113 ZM52.967,25.847 L47.555,24.763 C46.329,24.518 45.323,23.642 44.913,22.461 C44.685,21.807 44.418,21.175 44.122,20.563 C43.578,19.437 43.670,18.107 44.363,17.066 L47.427,12.469 L44.030,9.072 L39.433,12.137 C38.844,12.529 38.161,12.730 37.475,12.730 C36.949,12.730 36.423,12.612 35.935,12.376 C35.321,12.078 34.688,11.814 34.036,11.586 C32.855,11.176 31.979,10.171 31.735,8.945 L30.652,3.531 L25.848,3.532 L24.764,8.945 C24.519,10.171 23.643,11.176 22.462,11.586 C21.808,11.814 21.175,12.081 20.563,12.378 C20.075,12.612 19.550,12.730 19.025,12.730 C18.339,12.730 17.656,12.529 17.066,12.137 L12.470,9.072 L9.073,12.469 L12.137,17.066 C12.832,18.107 12.923,19.438 12.377,20.565 C12.078,21.178 11.814,21.811 11.587,22.463 C11.176,23.644 10.171,24.520 8.945,24.764 L3.531,25.847 L3.533,30.652 L8.945,31.736 C10.171,31.981 11.176,32.856 11.587,34.038 C11.814,34.691 12.082,35.324 12.378,35.936 C12.922,37.062 12.830,38.391 12.137,39.433 L9.073,44.030 L12.470,47.427 L17.066,44.362 C17.656,43.970 18.339,43.769 19.025,43.769 C19.551,43.769 20.077,43.886 20.565,44.123 C21.179,44.421 21.812,44.685 22.463,44.913 C23.644,45.323 24.520,46.328 24.765,47.554 L25.848,52.968 L30.652,52.968 L31.736,47.554 C31.981,46.328 32.857,45.323 34.038,44.913 C34.692,44.685 35.324,44.418 35.937,44.121 C36.425,43.886 36.950,43.769 37.475,43.769 C38.161,43.769 38.844,43.970 39.433,44.362 L44.030,47.427 L47.427,44.030 L44.363,39.433 C43.668,38.391 43.577,37.060 44.123,35.934 C44.422,35.320 44.685,34.688 44.913,34.036 C45.323,32.855 46.329,31.979 47.555,31.734 L52.969,30.652 L52.967,25.847 ZM28.250,40.609 C21.425,40.609 15.891,35.074 15.891,28.250 C15.891,21.425 21.425,15.890 28.250,15.890 C35.074,15.890 40.609,21.425 40.609,28.250 C40.609,35.074 35.074,40.609 28.250,40.609 ZM28.250,17.435 C22.279,17.435 17.436,22.278 17.436,28.250 C17.436,34.221 22.279,39.064 28.250,39.064 C34.221,39.064 39.064,34.221 39.064,28.250 C39.064,22.278 34.221,17.435 28.250,17.435 ZM28.250,35.312 C24.348,35.312 21.187,32.151 21.187,28.250 C21.187,24.347 24.348,21.187 28.250,21.187 C32.152,21.187 35.312,24.347 35.312,28.250 C35.312,32.151 32.152,35.312 28.250,35.312 ZM28.250,22.952 C25.326,22.952 22.953,25.325 22.953,28.250 C22.953,31.174 25.326,33.546 28.250,33.546 C31.174,33.546 33.547,31.174 33.547,28.250 C33.547,25.325 31.174,22.952 28.250,22.952 Z" class="cls-1"/>
</svg>
