<svg xmlns="http://www.w3.org/2000/svg" xmlns:xlink="http://www.w3.org/1999/xlink" preserveAspectRatio="xMidYMid" width="94" height="101" viewBox="0 0 94 101">
  <defs>
    <style>
      .cls-1 {
        fill: #fff;
        stroke: #fff;
        stroke-linejoin: round;
        stroke-width: 4px;
        fill-opacity: 0.1;
        fill-rule: evenodd;
      }
    </style>
  </defs>
  <path d="M36.961,91.303 C30.268,87.283 23.509,83.380 16.681,79.595 C9.853,75.809 6.507,70.013 6.643,62.207 C6.778,54.402 6.778,46.596 6.643,38.790 C6.507,30.985 9.853,25.189 16.681,21.403 C23.509,17.617 30.268,13.715 36.961,9.695 C43.653,5.675 50.345,5.675 57.038,9.695 C63.730,13.715 70.490,17.617 77.317,21.403 C84.145,25.189 87.491,30.985 87.356,38.790 C87.221,46.596 87.221,54.402 87.356,62.207 C87.491,70.013 84.145,75.809 77.317,79.595 C70.490,83.380 63.730,87.283 57.038,91.303 C50.345,95.323 43.653,95.323 36.961,91.303 Z" class="cls-1"/>
</svg>
