<svg xmlns="http://www.w3.org/2000/svg" xmlns:xlink="http://www.w3.org/1999/xlink" preserveAspectRatio="xMidYMid" width="58" height="58" viewBox="0 0 58 58">
  <defs>
    <style>
      .cls-1 {
        fill: #fff;
        fill-rule: evenodd;
      }
    </style>
  </defs>
  <path d="M53.279,4.676 C50.297,1.699 46.373,-0.001 42.502,-0.001 C39.239,-0.001 36.232,1.210 34.039,3.402 L25.217,12.290 C25.191,12.315 25.159,12.333 25.132,12.360 C25.118,12.374 25.109,12.393 25.095,12.407 L25.099,12.411 L6.376,31.276 C5.514,32.132 4.887,33.201 4.540,34.366 L0.283,49.786 C0.278,49.829 0.000,51.042 0.000,51.656 C0.000,55.159 2.844,57.999 6.353,57.999 C7.050,57.999 8.401,57.667 8.450,57.660 L23.816,53.620 C24.982,53.273 26.044,52.643 26.906,51.780 L54.570,23.898 C59.602,18.861 59.035,10.422 53.279,4.676 ZM29.026,43.130 C28.878,41.492 28.416,39.889 27.724,38.366 L44.859,21.232 C45.907,24.542 45.371,28.005 43.073,30.302 C43.059,30.317 43.042,30.325 43.028,30.339 L43.050,30.363 L29.044,44.480 C29.046,44.030 29.067,43.588 29.026,43.130 ZM26.814,36.713 C26.138,35.602 25.370,34.531 24.417,33.581 C23.309,32.473 22.038,31.606 20.713,30.876 L37.990,13.600 C39.344,14.202 40.645,15.059 41.792,16.206 C42.771,17.183 43.530,18.276 44.112,19.415 L26.814,36.713 ZM19.006,30.019 C17.328,29.343 15.569,28.957 13.808,28.934 L27.770,14.866 C29.906,12.781 33.020,12.181 36.085,12.942 L19.006,30.019 ZM7.555,54.145 C7.356,54.191 6.742,54.346 6.324,54.374 C4.834,54.359 3.625,53.146 3.625,51.656 C3.646,51.353 3.768,50.829 3.809,50.636 L5.717,43.722 C7.788,43.666 10.018,44.473 11.770,46.229 C13.551,48.007 14.388,50.281 14.296,52.374 L7.555,54.145 ZM16.084,51.904 C16.040,49.473 15.050,46.942 13.054,44.949 C11.165,43.057 8.694,41.967 6.229,41.869 L8.034,35.331 C8.165,34.895 8.424,34.467 8.742,34.090 C12.378,31.488 17.969,32.256 21.854,36.144 C25.963,40.252 26.598,46.267 23.433,49.861 C23.223,49.971 23.010,50.077 22.782,50.146 L16.084,51.904 ZM52.005,21.337 L48.952,24.413 C48.952,24.004 49.001,23.610 48.964,23.192 C48.646,19.686 47.008,16.294 44.355,13.643 C41.403,10.689 37.485,8.993 33.609,8.982 L36.613,5.956 C38.112,4.457 40.208,3.624 42.502,3.624 C45.421,3.624 48.415,4.944 50.718,7.241 C52.881,9.400 54.171,12.082 54.354,14.795 C54.524,17.328 53.690,19.650 52.005,21.337 Z" class="cls-1"/>
</svg>
