<svg xmlns="http://www.w3.org/2000/svg" xmlns:xlink="http://www.w3.org/1999/xlink" preserveAspectRatio="xMidYMid" width="61.031" height="53.406" viewBox="0 0 61.031 53.406">
  <defs>
    <style>
      .cls-1 {
        fill: #fff;
        fill-rule: evenodd;
      }
    </style>
  </defs>
  <path d="M30.513,45.769 C28.498,45.769 26.533,45.613 24.628,45.334 C23.324,46.923 17.709,52.398 11.750,53.374 C11.757,53.349 11.442,53.397 11.264,53.397 C10.308,53.397 9.535,52.624 9.535,51.670 C9.535,51.427 9.587,51.196 9.677,50.988 C9.677,50.988 9.675,50.988 9.673,50.988 C10.796,49.055 13.350,45.375 13.350,41.955 C13.350,41.899 13.364,41.866 13.364,41.814 C5.300,37.694 -0.000,30.755 -0.000,22.884 C-0.000,10.246 13.660,-0.001 30.513,-0.001 C47.364,-0.001 61.027,10.246 61.027,22.884 C61.027,35.523 47.364,45.769 30.513,45.769 ZM30.513,3.814 C15.791,3.814 3.814,12.369 3.814,22.884 C3.814,29.001 8.032,34.807 15.100,38.416 C16.376,39.069 17.179,40.382 17.179,41.814 C17.179,41.920 17.173,42.043 17.162,42.166 C17.123,44.136 16.540,46.051 15.797,47.756 C18.542,46.123 20.864,43.908 21.680,42.914 C22.410,42.024 23.496,41.519 24.628,41.519 C24.811,41.519 24.997,41.533 25.181,41.561 C26.971,41.823 28.764,41.955 30.513,41.955 C45.235,41.955 57.212,33.400 57.212,22.884 C57.212,12.369 45.235,3.814 30.513,3.814 ZM30.513,11.442 C20.354,11.442 11.442,16.789 11.442,22.884 C11.442,23.412 11.016,23.838 10.489,23.838 C9.962,23.838 9.535,23.412 9.535,22.884 C9.535,15.649 19.142,9.535 30.513,9.535 C31.040,9.535 31.467,9.961 31.467,10.488 C31.467,11.016 31.040,11.442 30.513,11.442 Z" class="cls-1"/>
</svg>
