<svg xmlns="http://www.w3.org/2000/svg" xmlns:xlink="http://www.w3.org/1999/xlink" preserveAspectRatio="xMidYMid" width="67.592" height="59.16" viewBox="0 0 67.592 59.16">
  <defs>
    <style>
      .cls-1 {
        fill: #fff;
        fill-rule: evenodd;
      }
    </style>
  </defs>
  <path d="M62.686,18.856 L57.037,20.160 L57.037,38.032 C57.037,43.640 50.619,48.596 33.796,48.596 C16.974,48.596 10.556,43.640 10.556,38.032 L10.556,20.160 L4.904,18.856 C2.013,18.189 -0.008,15.650 -0.008,12.678 C-0.008,9.707 2.013,7.167 4.906,6.501 L32.371,0.163 C32.860,0.053 33.330,0.002 33.796,0.002 C34.263,0.002 34.733,0.053 35.194,0.156 L62.689,6.501 C65.580,7.167 67.601,9.707 67.601,12.678 C67.601,15.650 65.580,18.189 62.686,18.856 ZM14.781,38.032 C14.781,40.368 21.120,44.370 33.796,44.370 C46.473,44.370 52.812,40.368 52.812,38.032 L52.812,21.136 L35.222,25.194 C34.733,25.303 34.263,25.355 33.796,25.355 C33.330,25.355 32.860,25.303 32.399,25.200 L14.781,21.136 L14.781,38.032 ZM61.738,10.619 L34.272,4.281 C34.115,4.246 33.956,4.227 33.796,4.227 C33.636,4.227 33.478,4.246 33.321,4.281 L5.855,10.619 C4.896,10.840 4.217,11.694 4.217,12.678 C4.217,13.662 4.896,14.517 5.855,14.738 L33.321,21.075 C33.478,21.111 33.636,21.130 33.796,21.130 C33.956,21.130 34.115,21.111 34.272,21.075 L61.738,14.738 C62.697,14.517 63.376,13.662 63.376,12.678 C63.376,11.694 62.697,10.840 61.738,10.619 ZM61.263,42.257 L61.263,23.242 C61.263,22.074 62.209,21.130 63.376,21.130 C64.542,21.130 65.489,22.074 65.489,23.242 L65.489,42.257 C65.489,43.425 64.542,44.370 63.376,44.370 C62.209,44.370 61.263,43.425 61.263,42.257 ZM63.376,46.483 C65.709,46.483 67.601,52.601 67.601,54.934 C67.601,57.268 65.709,59.160 63.376,59.160 C61.042,59.160 59.150,57.268 59.150,54.934 C59.150,52.601 61.042,46.483 63.376,46.483 Z" class="cls-1"/>
</svg>
