<svg xmlns="http://www.w3.org/2000/svg" xmlns:xlink="http://www.w3.org/1999/xlink" preserveAspectRatio="xMidYMid" width="56" height="56" viewBox="0 0 56 56">
  <defs>
    <style>
      .cls-1 {
        fill: #fff;
        fill-rule: evenodd;
      }
    </style>
  </defs>
  <path d="M54.441,49.587 C54.091,49.355 47.708,45.168 38.215,43.116 C41.697,38.701 43.933,32.768 44.883,28.818 C46.201,23.344 45.690,12.634 40.433,5.961 C37.360,2.060 33.060,-0.001 28.000,-0.001 C22.940,-0.001 18.640,2.060 15.567,5.961 C10.310,12.634 9.799,23.344 11.117,28.818 C12.067,32.768 14.302,38.701 17.785,43.116 C8.292,45.168 1.909,49.355 1.559,49.587 C0.275,50.443 -0.297,52.038 0.150,53.513 C0.596,54.990 1.958,56.000 3.500,56.000 L52.500,56.000 C54.042,56.000 55.404,54.990 55.850,53.513 C56.297,52.038 55.725,50.443 54.441,49.587 ZM35.467,40.947 L34.894,41.673 C30.721,46.467 25.279,46.467 21.106,41.673 L20.533,40.947 C15.659,34.770 13.241,26.603 14.282,18.810 C15.237,11.321 19.529,3.499 28.000,3.499 C36.471,3.499 40.763,11.321 41.718,18.810 C42.754,26.606 40.344,34.769 35.467,40.947 ZM3.500,52.499 C3.741,52.339 9.671,48.451 18.525,46.537 L22.873,45.595 C24.423,46.616 26.127,47.249 28.000,47.249 C29.873,47.249 31.577,46.616 33.127,45.595 L37.475,46.537 C46.260,48.435 52.168,52.281 52.500,52.499 L3.500,52.499 Z" class="cls-1"/>
</svg>
