<svg xmlns="http://www.w3.org/2000/svg" xmlns:xlink="http://www.w3.org/1999/xlink" preserveAspectRatio="xMidYMid" width="82.407" height="61.75" viewBox="0 0 82.407 61.75">
  <defs>
    <style>
      .cls-1 {
        fill: #ccd0d2;
        fill-rule: evenodd;
      }
    </style>
  </defs>
  <path d="M80.885,14.589 L67.805,1.506 C66.839,0.541 65.529,-0.002 64.164,-0.002 L18.231,-0.002 C16.866,-0.002 15.556,0.541 14.590,1.506 L1.510,14.589 C0.499,15.598 -0.006,16.930 -0.001,18.263 C0.006,19.473 0.439,20.682 1.301,21.652 L37.347,60.039 C38.325,61.137 39.725,61.766 41.196,61.766 C42.667,61.766 44.068,61.137 45.046,60.039 L81.094,21.652 C81.974,20.662 82.406,19.419 82.394,18.183 C82.384,16.877 81.876,15.580 80.885,14.589 ZM46.912,18.022 L35.481,18.022 L41.196,13.259 L46.912,18.022 ZM43.208,11.584 L50.246,5.718 L55.441,10.913 L48.921,16.344 L43.208,11.584 ZM33.472,16.344 L26.952,10.913 L32.147,5.718 L39.185,11.584 L33.472,16.344 ZM47.608,20.597 L41.196,52.659 L34.784,20.597 L47.608,20.597 ZM50.233,20.597 L62.869,20.597 L43.917,52.186 L50.233,20.597 ZM50.930,18.022 L57.269,12.741 L62.549,18.022 L50.930,18.022 ZM53.316,5.148 L62.361,5.148 L57.427,9.259 L53.316,5.148 ZM41.196,9.910 L35.481,5.148 L46.912,5.148 L41.196,9.910 ZM24.965,9.259 L20.032,5.148 L29.076,5.148 L24.965,9.259 ZM25.124,12.741 L31.462,18.022 L19.843,18.022 L25.124,12.741 ZM32.159,20.597 L38.476,52.186 L19.524,20.597 L32.159,20.597 ZM32.710,47.577 L7.374,20.597 L16.524,20.597 L32.710,47.577 ZM65.868,20.597 L75.021,20.597 L49.680,47.580 L65.868,20.597 ZM66.190,18.022 L59.255,11.086 L65.172,6.156 L77.035,18.022 L66.190,18.022 ZM17.213,6.150 L23.137,11.086 L16.202,18.022 L5.164,18.022 L17.213,6.150 Z" class="cls-1"/>
</svg>
