<?xml version="1.0" encoding="utf-8"?>
<!-- Generator: Adobe Illustrator 21.0.2, SVG Export Plug-In . SVG Version: 6.00 Build 0)  -->
<svg version="1.1" id="Ebene_1" xmlns="http://www.w3.org/2000/svg" xmlns:xlink="http://www.w3.org/1999/xlink" x="0px" y="0px"
	 viewBox="0 0 70.4 61.5" style="enable-background:new 0 0 70.4 61.5;" xml:space="preserve">
<style type="text/css">
	.st0{fill:#CCD0D2;}
</style>
<path class="st0" d="M64.2,35.6c-0.3,0.3-24.3,24-24.3,24c-2.6,2.6-6.8,2.6-9.4,0c0,0-22-21.7-24.3-24C-2,27.4-2,14.2,6.2,6.1
	c8-7.9,20.7-8.1,29-0.6c8.3-7.4,21-7.3,29,0.6C72.4,14.2,72.4,27.4,64.2,35.6z M61.1,9.2C54.8,3,44.8,2.8,38.2,8.7l-3,2.7l-3-2.7
	C25.6,2.8,15.6,3,9.3,9.2c-6.5,6.4-6.5,16.9,0,23.3l24.3,24c0.9,0.9,2.3,0.9,3.1,0l24.3-24C67.6,26,67.6,15.6,61.1,9.2z M20.3,13.2
	L20.3,13.2c-3.9,0-7.1,3.2-7.1,7.1v0c0,0.6-0.5,1.1-1.1,1.1S11,21,11,20.3c0-5.2,4.2-9.3,9.3-9.3c0,0,0,0,0,0c0.6,0,1.1,0.5,1.1,1.1
	C21.4,12.7,21,13.2,20.3,13.2z"/>
</svg>
