<svg xmlns="http://www.w3.org/2000/svg" xmlns:xlink="http://www.w3.org/1999/xlink" preserveAspectRatio="xMidYMid" width="43.25" height="62.91" viewBox="0 0 43.25 62.91">
  <defs>
    <style>
      .cls-1 {
        fill: #d1d5d7;
        fill-rule: evenodd;
      }
    </style>
  </defs>
  <path d="M37.345,62.908 L5.897,62.911 C2.639,62.911 -0.000,60.272 -0.000,57.014 L-0.000,5.910 C-0.000,2.653 2.639,0.014 5.897,0.014 L37.345,0.012 C40.602,0.012 43.241,2.652 43.241,5.908 L43.241,57.012 C43.241,60.269 40.602,62.908 37.345,62.908 ZM39.310,5.908 C39.310,4.824 38.429,3.943 37.345,3.943 L5.897,3.945 C4.812,3.945 3.931,4.825 3.931,5.910 L3.931,9.841 L39.310,9.839 L39.310,5.908 ZM39.310,11.805 L3.931,11.807 L3.931,51.110 L39.310,51.107 L39.310,11.805 ZM39.310,53.073 L3.931,53.075 L3.931,57.014 C3.931,58.098 4.812,58.979 5.897,58.979 L37.345,58.977 C38.429,58.977 39.310,58.097 39.310,57.012 L39.310,53.073 ZM22.603,57.005 L20.638,57.005 C20.095,57.005 19.655,56.565 19.655,56.021 C19.655,55.478 20.095,55.039 20.638,55.039 L22.603,55.039 C23.147,55.039 23.586,55.478 23.586,56.021 C23.586,56.565 23.147,57.005 22.603,57.005 ZM18.672,5.908 L24.569,5.908 C25.112,5.908 25.552,6.348 25.552,6.891 C25.552,7.434 25.112,7.874 24.569,7.874 L18.672,7.874 C18.129,7.874 17.690,7.434 17.690,6.891 C17.690,6.348 18.129,5.908 18.672,5.908 Z" class="cls-1"/>
</svg>
