<svg xmlns="http://www.w3.org/2000/svg" xmlns:xlink="http://www.w3.org/1999/xlink" preserveAspectRatio="xMidYMid" width="180" height="194" viewBox="0 0 180 194">
  <defs>
    <style>
      .cls-1 {
        fill: #fff;
        stroke: #ccd0d2;
        stroke-linejoin: round;
        stroke-width: 4px;
        fill-opacity: 0.1;
        fill-rule: evenodd;
      }
    </style>
  </defs>
  <path d="M69.771,179.227 C56.283,171.125 42.659,163.259 28.899,155.629 C15.139,147.999 8.395,136.319 8.667,120.586 C8.940,104.855 8.940,89.123 8.667,73.392 C8.395,57.660 15.139,45.979 28.899,38.349 C42.659,30.719 56.283,22.854 69.771,14.752 C83.259,6.649 96.747,6.649 110.235,14.752 C123.723,22.854 137.347,30.719 151.107,38.349 C164.867,45.979 171.611,57.660 171.339,73.392 C171.066,89.123 171.066,104.855 171.339,120.586 C171.611,136.319 164.867,147.999 151.107,155.629 C137.347,163.259 123.723,171.125 110.235,179.227 C96.747,187.328 83.259,187.328 69.771,179.227 Z" class="cls-1"/>
</svg>
