<?xml version="1.0" encoding="UTF-8"?>
<!DOCTYPE svg PUBLIC "-//W3C//DTD SVG 1.1//EN" "http://www.w3.org/Graphics/SVG/1.1/DTD/svg11.dtd">
<!-- Creator: CorelDRAW -->
<svg xmlns="http://www.w3.org/2000/svg" xml:space="preserve" width="210mm" height="297mm" style="shape-rendering:geometricPrecision; text-rendering:geometricPrecision; image-rendering:optimizeQuality; fill-rule:evenodd; clip-rule:evenodd"
viewBox="0 0 210 297"
 xmlns:xlink="http://www.w3.org/1999/xlink">
 <defs>
  <style type="text/css">
   <![CDATA[
    .fil5 {fill:#1E2323}
    .fil3 {fill:#273030}
    .fil1 {fill:#283131}
    .fil0 {fill:#3C4444}
    .fil4 {fill:#B2B2B2}
    .fil2 {fill:#C6C6C6}
   ]]>
  </style>
 </defs>
 <g id="Ebene_x0020_1">
  <metadata id="CorelCorpID_0Corel-Layer"/>
  <g id="_306689632">
   <polygon id="_305644336" class="fil0" points="99.0653,116.896 137.059,116.896 137.059,75.3327 25.5537,75.4664 "/>
   <path id="_305656984" class="fil1" d="M99.0653 116.896l-73.5116 -41.4293 111.505 -0.1337 -111.94 -0.2549 0 43.3478 34.9333 0c0.9956,0 2.2949,0.973 2.2949,1.7848l0 17.8492 34.1683 0 0 -18.3591c0,-1.6186 1.2,-2.4904 2.5498,-2.8048z"/>
   <path id="_41263960" class="fil2" d="M67.9569 156.929l0.51 0 25.2436 0 2.805 0 0 -12.4943 -34.1683 0 0 2.0399 2.5498 0c4.367,0 3.0599,5.9237 3.0599,10.4544z"/>
   <polygon id="_114810336" class="fil0" points="170.717,165.088 170.972,121.484 101.105,121.741 "/>
   <path id="_305644360" class="fil0" d="M23.589 123.525l30.3436 40.7978c0,-3.3996 0.0003,-6.7995 0,-10.1994 -0.0005,-3.8533 -1.0356,-7.6496 2.8048,-7.6496l1.02 0 0 -23.4587 -34.1684 0 0 0.5099z"/>
   <polygon id="_306694288" class="fil3" points="170.717,165.088 101.105,121.741 101.105,165.088 "/>
   <polygon id="_114810168" class="fil0" points="54.9526,151.574 66.6819,169.678 66.6819,151.064 54.9526,151.064 "/>
   <polygon id="_305650888" class="fil1" points="53.9326,164.323 23.589,123.525 23.589,169.678 53.9326,169.678 "/>
   <polygon id="_306694192" class="fil1" points="66.6819,169.678 54.9526,151.574 54.9526,169.942 "/>
   <path id="_114809880" class="fil4" d="M67.9569 158.714c0,4.0359 0.1192,8.2447 0.0173,12.2566 0.0276,4.6271 -3.599,3.5525 -8.687,3.5525l0 0.255 43.6029 0 79.301 -0.255c0.9279,-0.0005 2.6411,-0.4994 3.0599,-1.5299l0 -3.3148 -9.4346 0 -79.3009 0 0 -0.765c-0.8018,-4.0094 -1.8135,-8.0174 -2.805,-11.9844l-25.2436 -0.0001 -0.51 1.7851z"/>
   <path id="_305651128" class="fil5" d="M54.9526 151.574l0 -0.5101 11.7293 0 0 18.6143 -11.7293 0.2642 0 -18.3684zm-34.1688 -82.6157l120.992 0.2549c0.969,0.099 1.6181,1.4304 1.6573,2.5498l0 45.1327 30.3435 0c1.2885,0.0247 1.9569,0.8104 2.0398,1.7849l0 50.9975 -79.3009 0 0 -0.765 0 -11.9845 0 -12.4943 -34.1683 0 0 2.0399 2.5498 0c4.367,0 3.0599,5.9237 3.0599,10.4544l0 1.7851c0.002,0.9524 0.0564,9.2084 0.0173,12.2566 0.0275,4.473 -3.599,3.5525 -8.687,3.5525l-38.7579 0c-0.9826,-0.0126 -1.7137,-0.8014 -1.7845,-1.7834l0.2546 -101.996c0.1107,-0.8376 1.0134,-1.7073 1.7844,-1.7847zm80.3214 52.7822l69.8665 -0.2569 -0.255 43.6047 -69.6115 0 0 -43.3478zm-47.1726 42.5827l0 5.3549 -30.3436 0 0 -46.1527 0 -0.5099 34.1684 0 0 23.4587 -1.02 0c-3.8404,0 -2.8053,3.7963 -2.8048,7.6496 0.0003,3.3999 0,6.7998 0,10.1994zm83.1259 -88.9905l0 41.563 -37.9932 0c-1.3498,0.3144 -2.5498,1.1862 -2.5498,2.8048l0 18.3591 -34.1683 0 0 -17.8492c0,-0.8118 -1.2993,-1.7848 -2.2949,-1.7848l-34.9333 0 0 -43.3478 111.94 0.2549z"/>
  </g>
 </g>
</svg>
